<?xml version="1.0" encoding="UTF-8" standalone="no"?>
<svg
   xmlns:dc="http://purl.org/dc/elements/1.1/"
   xmlns:cc="http://creativecommons.org/ns#"
   xmlns:rdf="http://www.w3.org/1999/02/22-rdf-syntax-ns#"
   xmlns:svg="http://www.w3.org/2000/svg"
   xmlns="http://www.w3.org/2000/svg"
   xmlns:sodipodi="http://sodipodi.sourceforge.net/DTD/sodipodi-0.dtd"
   xmlns:inkscape="http://www.inkscape.org/namespaces/inkscape"
   version="1.0"
   width="1200"
   height="1200"
   viewBox="0 0 9979.2096 9976.2472"
   preserveAspectRatio="xMidYMid meet"
   id="svg3809"
   sodipodi:docname="logo_blue.svg"
   inkscape:version="0.92.5 (2060ec1f9f, 2020-04-08)">
  <metadata
     id="metadata3815">
    <rdf:RDF>
      <cc:Work
         rdf:about="">
        <dc:format>image/svg+xml</dc:format>
        <dc:type
           rdf:resource="http://purl.org/dc/dcmitype/StillImage" />
        <dc:title />
      </cc:Work>
    </rdf:RDF>
  </metadata>
  <defs
     id="defs3813" />
  <sodipodi:namedview
     pagecolor="#ffffff"
     bordercolor="#666666"
     borderopacity="1"
     objecttolerance="10"
     gridtolerance="10"
     guidetolerance="10"
     inkscape:pageopacity="0"
     inkscape:pageshadow="2"
     inkscape:window-width="2560"
     inkscape:window-height="1377"
     id="namedview3811"
     showgrid="false"
     inkscape:zoom="0.95645289"
     inkscape:cx="422.47848"
     inkscape:cy="590.20157"
     inkscape:window-x="2552"
     inkscape:window-y="-8"
     inkscape:window-maximized="1"
     inkscape:current-layer="layer1" />
  <g
     inkscape:groupmode="layer"
     id="layer1"
     inkscape:label="Background">
    <rect
       style="fill:#ffffff;fill-opacity:1;stroke-width:8.31600761"
       id="rect821"
       width="6147.1064"
       height="7268.7144"
       x="1943.2506"
       y="1248.3157" />
  </g>
  <g
     id="layer101"
     style="fill:#00baff;stroke:none;fill-opacity:1"
     transform="matrix(1.0133242,0,0,1.0133242,-910.30609,-328.04901)">
    <path
       d="M 5497,10129 C 5035,10099 4525,9985 4070,9810 2550,9223 1404,7894 1050,6309 968,5940 936,5637 936,5240 936,4925 949,4762 996,4470 1213,3107 2013,1888 3190,1128 4287,420 5625,183 6905,471 c 793,178 1535,559 2160,1110 120,106 352,339 457,459 356,409 660,906 855,1400 464,1175 464,2437 0,3610 -357,903 -1022,1722 -1842,2267 -900,599 -1955,881 -3038,812 z M 8600,8509 c 55,-25 95,-62 123,-114 22,-40 22,-43 22,-690 0,-727 4,-682 -72,-759 -73,-72 185,-67 -2859,-64 l -2741,3 -49,30 c -30,19 -60,49 -79,79 l -30,49 v 661 c 0,606 1,664 17,692 25,47 82,97 130,116 40,16 230,17 2768,17 2720,1 2725,1 2770,-20 z m 5,-1758 c 48,-22 97,-70 122,-120 17,-33 18,-83 21,-674 2,-634 2,-638 -19,-688 -26,-59 -91,-121 -147,-137 -30,-9 -702,-12 -2754,-12 -3012,0 -2768,-6 -2842,66 -75,73 -71,26 -74,737 -2,405 1,651 7,675 16,59 66,118 123,146 l 52,26 h 2735 c 2628,0 2738,-1 2776,-19 z M 7370,5011 c 0,-5 -16,-12 -36,-16 -131,-24 -352,-122 -504,-223 -113,-76 -299,-261 -379,-380 -112,-166 -184,-344 -216,-541 -14,-82 -16,-135 -11,-255 3,-83 9,-170 12,-193 l 6,-43 h -175 -175 l -28,67 c -151,356 -491,695 -861,862 -472,213 -993,224 -1478,31 -176,-69 -360,-186 -523,-329 l -92,-82 v 460 459 l 28,52 c 36,70 88,111 160,126 44,10 534,13 2165,13 1223,1 2107,-3 2107,-8 z m 1242,-24 c 98,-48 138,-124 138,-265 v -85 l -32,27 c -193,158 -384,260 -590,317 -49,13 -88,28 -88,32 0,5 116,7 258,5 l 257,-3 z m -632,-166 c 266,-59 476,-173 663,-362 l 107,-109 v -397 c 0,-379 -1,-400 -21,-443 -25,-55 -62,-95 -114,-123 l -40,-22 -1054,-3 c -593,-1 -1058,1 -1063,6 -5,5 -16,49 -23,98 -95,584 290,1156 893,1329 148,43 241,54 407,50 102,-2 180,-10 245,-24 z M 4391,4259 c 272,-27 513,-113 739,-264 168,-112 320,-263 425,-420 47,-71 115,-195 115,-210 0,-10 -2544,-5 -2581,5 -79,22 -150,93 -170,171 l -13,47 72,90 c 332,416 869,637 1413,581 z M 5720,3239 c 6,-11 23,-68 37,-127 38,-162 43,-394 13,-557 -69,-364 -263,-673 -565,-901 l -72,-54 h -904 -905 l -59,43 c -90,66 -210,182 -287,277 l -68,85 v 530 530 l 24,50 c 31,65 73,103 138,126 50,17 119,18 1345,19 h 1292 z m 581,-56 c 124,-336 379,-611 724,-778 224,-109 369,-144 630,-152 153,-4 198,-2 301,15 271,47 511,153 716,318 37,30 70,54 73,54 3,0 4,-195 3,-433 l -3,-434 -30,-48 c -37,-60 -94,-101 -160,-115 -34,-7 -532,-9 -1572,-8 l -1522,3 101,110 c 388,426 517,950 373,1518 l -7,27 173,-2 173,-3 z m 2273,63 c 104,-31 166,-112 174,-227 5,-79 0,-90 -113,-203 -161,-163 -373,-281 -619,-343 -135,-33 -386,-43 -521,-20 -392,69 -698,268 -907,593 -27,42 -81,153 -92,192 l -7,22 h 1019 c 850,0 1027,-2 1066,-14 z"
       id="path3765"
       inkscape:connector-curvature="0"
       style="fill:#00baff;fill-opacity:1" />
    <path
       d="m 3775,7856 c -60,-36 -88,-93 -83,-166 14,-198 294,-226 343,-33 22,86 -12,166 -85,203 -55,28 -124,26 -175,-4 z"
       id="path3767"
       inkscape:connector-curvature="0"
       style="fill:#00baff;fill-opacity:1" />
    <path
       d="m 4526,7857 c -123,-69 -115,-251 13,-317 36,-18 111,-16 154,5 58,28 90,76 95,145 4,48 0,66 -19,100 -48,85 -159,115 -243,67 z"
       id="path3769"
       inkscape:connector-curvature="0"
       style="fill:#00baff;fill-opacity:1" />
    <path
       d="m 5285,7864 c -107,-55 -134,-184 -59,-274 97,-115 287,-63 311,84 13,79 -32,163 -104,192 -43,19 -111,17 -148,-2 z"
       id="path3771"
       inkscape:connector-curvature="0"
       style="fill:#00baff;fill-opacity:1" />
    <path
       d="m 3824,6120 c -155,-36 -183,-260 -41,-329 144,-70 291,48 252,202 -7,26 -20,56 -30,67 -45,50 -120,75 -181,60 z"
       id="path3773"
       inkscape:connector-curvature="0"
       style="fill:#00baff;fill-opacity:1" />
    <path
       d="m 4575,6121 c -124,-30 -178,-178 -104,-283 69,-96 234,-87 294,16 78,134 -42,302 -190,267 z"
       id="path3775"
       inkscape:connector-curvature="0"
       style="fill:#00baff;fill-opacity:1" />
    <path
       d="m 5325,6121 c -67,-17 -117,-65 -135,-130 -44,-166 158,-292 287,-178 68,60 83,147 38,224 -38,63 -122,101 -190,84 z"
       id="path3777"
       inkscape:connector-curvature="0"
       style="fill:#00baff;fill-opacity:1" />
    <path
       d="m 7586,4629 c -187,-25 -362,-148 -440,-312 -42,-87 -55,-141 -56,-227 0,-144 50,-262 160,-372 88,-88 178,-138 295,-163 301,-64 606,111 689,394 33,113 15,278 -42,385 -37,71 -164,195 -238,234 -102,53 -245,77 -368,61 z m -11,-641 c 64,-50 65,-131 4,-183 -37,-30 -106,-34 -150,-8 -55,32 -73,116 -36,163 42,54 132,68 182,28 z"
       id="path3779"
       inkscape:connector-curvature="0"
       style="fill:#00baff;fill-opacity:1" />
    <path
       d="m 3960,3114 c -343,-40 -594,-230 -702,-531 -29,-82 -36,-282 -14,-378 21,-89 82,-214 140,-287 95,-119 254,-224 406,-268 108,-31 292,-38 396,-15 202,44 373,150 492,305 38,49 91,156 114,230 33,108 33,294 -1,395 -93,283 -318,480 -611,534 -70,13 -175,20 -220,15 z m -162,-954 c 18,-11 40,-36 49,-55 15,-32 16,-40 3,-77 -20,-56 -58,-82 -117,-82 -59,0 -95,22 -119,72 -48,102 83,204 184,142 z"
       id="path3781"
       inkscape:connector-curvature="0"
       style="fill:#00baff;fill-opacity:1" />
  </g>
</svg>
